<?xml version="1.0" encoding="UTF-8" standalone="no"?>
<!-- Created with Inkscape (http://www.inkscape.org/) -->

<svg
   width="1000mm"
   height="420mm"
   viewBox="0 0 1000 420"
   version="1.1"
   id="svg1"
   inkscape:version="1.3.2 (091e20e, 2023-11-25)"
   sodipodi:docname="tte.svg"
   xmlns:inkscape="http://www.inkscape.org/namespaces/inkscape"
   xmlns:sodipodi="http://sodipodi.sourceforge.net/DTD/sodipodi-0.dtd"
   xmlns="http://www.w3.org/2000/svg"
   xmlns:svg="http://www.w3.org/2000/svg">
  <sodipodi:namedview
     id="namedview1"
     pagecolor="#ffffff"
     bordercolor="#000000"
     borderopacity="0.25"
     inkscape:showpageshadow="2"
     inkscape:pageopacity="0.0"
     inkscape:pagecheckerboard="0"
     inkscape:deskcolor="#d1d1d1"
     inkscape:document-units="mm"
     inkscape:zoom="0.2102413"
     inkscape:cx="1938.249"
     inkscape:cy="558.88162"
     inkscape:window-width="1728"
     inkscape:window-height="1056"
     inkscape:window-x="0"
     inkscape:window-y="33"
     inkscape:window-maximized="1"
     inkscape:current-layer="layer1" />
  <defs
     id="defs1">
    <clipPath
       clipPathUnits="userSpaceOnUse"
       id="clipPath37">
      <path
         d="M 0,0 H 841.89 V 595.276 H 0 Z"
         id="path37" />
    </clipPath>
    <clipPath
       clipPathUnits="userSpaceOnUse"
       id="clipPath39">
      <path
         d="M 0,0 H 841.89 V 595.276 H 0 Z"
         id="path39" />
    </clipPath>
    <clipPath
       clipPathUnits="userSpaceOnUse"
       id="clipPath41">
      <path
         d="M 0,0 H 841.89 V 595.276 H 0 Z"
         id="path41" />
    </clipPath>
    <clipPath
       clipPathUnits="userSpaceOnUse"
       id="clipPath43">
      <path
         d="M 0,0 H 841.89 V 595.276 H 0 Z"
         id="path43" />
    </clipPath>
    <clipPath
       clipPathUnits="userSpaceOnUse"
       id="clipPath45">
      <path
         d="M 0,0 H 841.89 V 595.276 H 0 Z"
         id="path45" />
    </clipPath>
    <clipPath
       clipPathUnits="userSpaceOnUse"
       id="clipPath47">
      <path
         d="M 0,0 H 841.89 V 595.276 H 0 Z"
         id="path47" />
    </clipPath>
    <clipPath
       clipPathUnits="userSpaceOnUse"
       id="clipPath49">
      <path
         d="M 0,0 H 841.89 V 595.276 H 0 Z"
         id="path49" />
    </clipPath>
    <clipPath
       clipPathUnits="userSpaceOnUse"
       id="clipPath51">
      <path
         d="M 0,0 H 841.89 V 595.276 H 0 Z"
         id="path51" />
    </clipPath>
    <clipPath
       clipPathUnits="userSpaceOnUse"
       id="clipPath53">
      <path
         d="M 0,0 H 841.89 V 595.276 H 0 Z"
         id="path53" />
    </clipPath>
    <clipPath
       clipPathUnits="userSpaceOnUse"
       id="clipPath55">
      <path
         d="M 0,0 H 841.89 V 595.276 H 0 Z"
         id="path55" />
    </clipPath>
    <clipPath
       clipPathUnits="userSpaceOnUse"
       id="clipPath57">
      <path
         d="M 0,0 H 841.89 V 595.276 H 0 Z"
         id="path57" />
    </clipPath>
    <clipPath
       clipPathUnits="userSpaceOnUse"
       id="clipPath59">
      <path
         d="M 0,0 H 841.89 V 595.276 H 0 Z"
         id="path59" />
    </clipPath>
    <clipPath
       clipPathUnits="userSpaceOnUse"
       id="clipPath61">
      <path
         d="M 0,0 H 841.89 V 595.276 H 0 Z"
         id="path61" />
    </clipPath>
    <clipPath
       clipPathUnits="userSpaceOnUse"
       id="clipPath63">
      <path
         d="M 0,0 H 841.89 V 595.276 H 0 Z"
         id="path63" />
    </clipPath>
    <clipPath
       clipPathUnits="userSpaceOnUse"
       id="clipPath65">
      <path
         d="M 0,0 H 841.89 V 595.276 H 0 Z"
         id="path65" />
    </clipPath>
    <clipPath
       clipPathUnits="userSpaceOnUse"
       id="clipPath67">
      <path
         d="M 0,0 H 841.89 V 595.276 H 0 Z"
         id="path67" />
    </clipPath>
    <clipPath
       clipPathUnits="userSpaceOnUse"
       id="clipPath69">
      <path
         d="M 0,0 H 841.89 V 595.276 H 0 Z"
         id="path69" />
    </clipPath>
    <clipPath
       clipPathUnits="userSpaceOnUse"
       id="clipPath71">
      <path
         d="M 0,0 H 841.89 V 595.276 H 0 Z"
         id="path71" />
    </clipPath>
    <clipPath
       clipPathUnits="userSpaceOnUse"
       id="clipPath73">
      <path
         d="M 0,0 H 841.89 V 595.276 H 0 Z"
         id="path73" />
    </clipPath>
    <clipPath
       clipPathUnits="userSpaceOnUse"
       id="clipPath75">
      <path
         d="M 0,0 H 841.89 V 595.276 H 0 Z"
         id="path75" />
    </clipPath>
    <clipPath
       clipPathUnits="userSpaceOnUse"
       id="clipPath77">
      <path
         d="M 0,0 H 841.89 V 595.276 H 0 Z"
         id="path77" />
    </clipPath>
  </defs>
  <g
     inkscape:label="Layer 1"
     inkscape:groupmode="layer"
     id="layer1">
    <g
       id="g1"
       transform="translate(1.8830172,-2.1726366)">
      <path
         id="path36"
         d="m 646.8959,331.2167 h 19.397 v -1.87 h -17.372 v -10.714 h 15.62 v -1.87 h -15.62 v -10.946 h 17.565 v -1.867 h -19.59 z"
         style="fill:#e51636;fill-opacity:1;fill-rule:nonzero;stroke:none"
         transform="matrix(2.6625278,0,0,-2.6625278,-1097.275,1198.3508)"
         clip-path="url(#clipPath37)" />
      <path
         id="path38"
         d="m 668.9494,323.814 h 1.905 v -3.702 c 1.326,2.338 3.547,4.168 7.169,4.168 5.025,0 7.949,-3.427 7.949,-8.178 V 303.95 h -1.913 v 11.8 c 0,4.092 -2.294,6.776 -6.308,6.776 -3.894,0 -6.897,-2.959 -6.897,-7.087 V 303.95 h -1.905 z"
         style="fill:#e51636;fill-opacity:1;fill-rule:nonzero;stroke:none"
         transform="matrix(2.6625278,0,0,-2.6625278,-1097.275,1198.3508)"
         clip-path="url(#clipPath39)" />
      <path
         id="path40"
         d="m 689.0599,300.6753 1.13,1.559 c 2.376,-1.832 5.101,-2.805 8.024,-2.805 4.558,0 7.79,2.612 7.79,7.715 v 2.88 c -1.715,-2.453 -4.36,-4.596 -8.294,-4.596 -4.793,0 -9.549,3.662 -9.549,9.346 v 0.082 c 0,5.726 4.756,9.424 9.549,9.424 3.97,0 6.658,-2.103 8.294,-4.438 v 3.972 h 1.909 v -16.789 c 0,-2.882 -0.935,-5.143 -2.532,-6.738 -1.712,-1.713 -4.286,-2.65 -7.206,-2.65 -3.311,0 -6.389,1.013 -9.115,3.038 m 17.063,14.139 v 0.081 c 0,4.596 -4.093,7.555 -8.221,7.555 -4.167,0 -7.675,-2.883 -7.675,-7.518 v -0.076 c 0,-4.48 3.584,-7.6 7.675,-7.6 4.128,0 8.221,3.04 8.221,7.558"
         style="fill:#e51636;fill-opacity:1;fill-rule:nonzero;stroke:none"
         transform="matrix(2.6625278,0,0,-2.6625278,-1097.275,1198.3508)"
         clip-path="url(#clipPath41)" />
      <path
         id="path42"
         d="m 710.733,303.95 h 1.909 v 28.434 h -1.909 z"
         style="fill:#e51636;fill-opacity:1;fill-rule:nonzero;stroke:none"
         transform="matrix(2.6625278,0,0,-2.6625278,-1097.275,1198.3508)"
         clip-path="url(#clipPath43)" />
      <path
         id="path44"
         d="m 737.2627,323.814 h 1.908 v -3.702 c 1.328,2.338 3.547,4.168 7.168,4.168 5.024,0 7.947,-3.427 7.947,-8.178 V 303.95 h -1.909 v 11.8 c 0,4.092 -2.298,6.776 -6.312,6.776 -3.894,0 -6.894,-2.959 -6.894,-7.087 V 303.95 h -1.908 z"
         style="fill:#e51636;fill-opacity:1;fill-rule:nonzero;stroke:none"
         transform="matrix(2.6625278,0,0,-2.6625278,-1097.275,1198.3508)"
         clip-path="url(#clipPath45)" />
      <path
         id="path46"
         d="m 756.8389,313.8038 v 0.079 c 0,6.464 4.869,10.398 9.66,10.398 3.974,0 6.545,-2.256 8.181,-4.75 v 12.853 h 1.907 v -28.434 h -1.907 v 4.44 c -1.715,-2.61 -4.245,-4.91 -8.181,-4.91 -4.791,0 -9.66,3.855 -9.66,10.324 m 17.958,0.036 v 0.08 c 0,5.105 -3.975,8.53 -8.103,8.53 -4.323,0 -7.794,-3.153 -7.794,-8.491 v -0.076 c 0,-5.222 3.627,-8.573 7.794,-8.573 4.128,0 8.103,3.468 8.103,8.53"
         style="fill:#e51636;fill-opacity:1;fill-rule:nonzero;stroke:none"
         transform="matrix(2.6625278,0,0,-2.6625278,-1097.275,1198.3508)"
         clip-path="url(#clipPath47)" />
      <path
         id="path48"
         d="m 714.7228,313.8038 v 0.079 c 0,6.464 4.869,10.398 9.66,10.398 3.974,0 6.542,-2.256 8.179,-4.75 v 4.283 h 1.907 v -19.864 h -1.907 v 4.44 c -1.714,-2.61 -4.245,-4.91 -8.179,-4.91 -4.791,0 -9.66,3.855 -9.66,10.324 m 17.956,0.036 v 0.08 c 0,5.105 -3.973,8.53 -8.1,8.53 -4.325,0 -7.792,-3.153 -7.792,-8.491 v -0.076 c 0,-5.222 3.623,-8.573 7.792,-8.573 4.127,0 8.1,3.468 8.1,8.53"
         style="fill:#e51636;fill-opacity:1;fill-rule:nonzero;stroke:none"
         transform="matrix(2.6625278,0,0,-2.6625278,-1097.275,1198.3508)"
         clip-path="url(#clipPath49)" />
      <path
         id="path50"
         d="m 482.4924,373.0773 h -12.647 v 8.432 h 34.436 v -8.432 h -12.646 v -36.29 h -9.143 z"
         style="fill:#231f20;fill-opacity:1;fill-rule:nonzero;stroke:none"
         transform="matrix(2.6625278,0,0,-2.6625278,-1097.275,1198.3508)"
         clip-path="url(#clipPath51)" />
      <path
         id="path52"
         d="m 540.6971,340.9444 v -4.157 h -9.023 v 44.721 h 9.023 v -17.47 c 2.198,2.97 5.225,5.166 9.918,5.166 7.42,0 14.485,-5.819 14.485,-16.447 v -0.119 c 0,-10.628 -6.947,-16.444 -14.485,-16.444 -4.81,0 -7.779,2.196 -9.918,4.75 m 15.378,11.694 v 0.119 c 0,5.285 -3.563,8.789 -7.778,8.789 -4.214,0 -7.717,-3.504 -7.717,-8.789 v -0.119 c 0,-5.284 3.503,-8.785 7.717,-8.785 4.215,0 7.778,3.445 7.778,8.785"
         style="fill:#231f20;fill-opacity:1;fill-rule:nonzero;stroke:none"
         transform="matrix(2.6625278,0,0,-2.6625278,-1097.275,1198.3508)"
         clip-path="url(#clipPath53)" />
      <path
         id="path54"
         d="m 508.9709,336.1948 c -7.541,0 -14.487,5.816 -14.487,16.444 v 0.118 c 0,10.629 7.065,16.447 14.487,16.447 4.69,0 7.717,-2.196 9.914,-5.165 v 4.052 h 9.026 v -31.303 h -9.026 v 4.157 c -2.139,-2.554 -5.106,-4.75 -9.914,-4.75 m 2.314,7.658 c 4.217,0 7.72,3.502 7.72,8.786 v 0.118 c 0,5.285 -3.503,8.789 -7.72,8.789 -4.212,0 -7.775,-3.504 -7.775,-8.789 v -0.118 c 0,-5.34 3.563,-8.786 7.775,-8.786"
         style="fill:#231f20;fill-opacity:1;fill-rule:nonzero;stroke:none"
         transform="matrix(2.6625278,0,0,-2.6625278,-1097.275,1198.3508)"
         clip-path="url(#clipPath55)" />
      <path
         id="path56"
         d="m 579.9034,352.5214 v 0.117 c 0,9.085 6.471,16.566 15.734,16.566 10.627,0 14.652,-8.255 14.652,-17.277 0,-0.714 -0.061,-1.543 -0.122,-2.373 h -21.299 c 0.89,-4.102 3.739,-6.236 7.777,-6.236 3.028,0 5.225,0.948 7.719,3.265 l 5.164,-4.573 c -2.968,-3.678 -7.242,-5.934 -13.001,-5.934 -9.559,0 -16.624,6.704 -16.624,16.445 m 21.876,2.672 c -0.534,4.036 -2.899,6.766 -6.454,6.766 -3.322,0 -5.862,-2.672 -6.576,-6.766 z"
         style="fill:#231f20;fill-opacity:1;fill-rule:nonzero;stroke:none"
         transform="matrix(2.6625278,0,0,-2.6625278,-1097.275,1198.3508)"
         clip-path="url(#clipPath57)" />
      <path
         id="path58"
         d="m 636.2494,352.5214 v 0.121 c 0,9.084 6.471,16.562 15.732,16.562 10.627,0 14.65,-8.251 14.65,-17.274 0,-0.714 -0.059,-1.544 -0.118,-2.376 h -21.299 c 0.89,-4.098 3.739,-6.236 7.776,-6.236 3.029,0 5.225,0.951 7.718,3.269 l 5.167,-4.574 c -2.969,-3.679 -7.244,-5.935 -13.003,-5.935 -9.56,0 -16.623,6.706 -16.623,16.443 m 21.875,2.672 c -0.534,4.038 -2.898,6.769 -6.454,6.769 -3.324,0 -5.864,-2.669 -6.575,-6.769 z"
         style="fill:#231f20;fill-opacity:1;fill-rule:nonzero;stroke:none"
         transform="matrix(2.6625278,0,0,-2.6625278,-1097.275,1198.3508)"
         clip-path="url(#clipPath59)" />
      <path
         id="path60"
         d="m 623.3154,373.0807 h -12.646 v 8.428 h 34.434 v -8.428 h -12.646 v -36.293 h -9.142 z"
         style="fill:#231f20;fill-opacity:1;fill-rule:nonzero;stroke:none"
         transform="matrix(2.6625278,0,0,-2.6625278,-1097.275,1198.3508)"
         clip-path="url(#clipPath61)" />
      <path
         id="path62"
         d="m 669.5341,368.6112 h 9.024 v -4.514 c 2.077,2.672 4.749,5.107 9.322,5.107 6.827,0 10.804,-4.514 10.804,-11.815 v -20.601 h -9.023 v 17.752 c 0,4.275 -2.019,6.471 -5.461,6.471 -3.445,0 -5.642,-2.196 -5.642,-6.471 v -17.752 h -9.024 z"
         style="fill:#231f20;fill-opacity:1;fill-rule:nonzero;stroke:none"
         transform="matrix(2.6625278,0,0,-2.6625278,-1097.275,1198.3508)"
         clip-path="url(#clipPath63)" />
      <path
         id="path64"
         d="m 702.4041,368.6112 h 9.025 v -4.514 c 2.077,2.672 4.749,5.107 9.321,5.107 6.826,0 10.806,-4.514 10.806,-11.815 v -20.601 h -9.025 v 17.752 c 0,4.275 -2.018,6.471 -5.461,6.471 -3.445,0 -5.641,-2.196 -5.641,-6.471 v -17.752 h -9.025 z"
         style="fill:#231f20;fill-opacity:1;fill-rule:nonzero;stroke:none"
         transform="matrix(2.6625278,0,0,-2.6625278,-1097.275,1198.3508)"
         clip-path="url(#clipPath65)" />
      <path
         id="path66"
         d="m 747.9526,341.364 4.022,5.786 c 4.365,-2.855 9.436,-4.008 12.709,-4.008 2.813,0 4.116,0.958 4.116,2.226 0,2.011 -3.929,2.696 -7.73,3.969 -4.998,1.676 -11.416,4.43 -11.416,9.895 v 0.118 c 0,6.475 6.399,9.737 13.471,9.737 4.452,0 9.299,-1.364 13.254,-3.786 l -3.456,-6.246 c -3.624,1.94 -8.127,3.085 -10.681,3.085 -2.424,0 -3.848,-0.787 -3.848,-2.006 0,-1.449 3.038,-2.55 8.006,-4.109 4.896,-1.535 11.06,-3.622 11.06,-9.438 v -0.122 c 0,-7.064 -6.281,-10.27 -13.877,-10.27 -4.912,0 -10.414,1.485 -15.63,5.169"
         style="fill:#231f20;fill-opacity:1;fill-rule:nonzero;stroke:none"
         transform="matrix(2.6625278,0,0,-2.6625278,-1097.275,1198.3508)"
         clip-path="url(#clipPath67)" />
      <path
         id="path68"
         d="m 568.354,336.788 h 9.027 v 44.721 h -9.027 z"
         style="fill:#231f20;fill-opacity:1;fill-rule:nonzero;stroke:none"
         transform="matrix(2.6625278,0,0,-2.6625278,-1097.275,1198.3508)"
         clip-path="url(#clipPath69)" />
      <path
         id="path70"
         d="m 740.3048,365.7706 c -1.708,0 -3.282,0.571 -4.557,1.521 v -30.504 h 9.027 v 30.429 c -1.259,-0.906 -2.799,-1.446 -4.47,-1.446"
         style="fill:#231f20;fill-opacity:1;fill-rule:nonzero;stroke:none"
         transform="matrix(2.6625278,0,0,-2.6625278,-1097.275,1198.3508)"
         clip-path="url(#clipPath71)" />
      <path
         id="path72"
         d="m 735.1382,373.4229 c 0,2.85 2.318,5.164 5.167,5.164 2.863,0 5.176,-2.314 5.176,-5.164 0,-2.863 -2.313,-5.171 -5.176,-5.171 -2.849,0 -5.167,2.308 -5.167,5.171"
         style="fill:#e51636;fill-opacity:1;fill-rule:nonzero;stroke:none"
         transform="matrix(2.6625278,0,0,-2.6625278,-1097.275,1198.3508)"
         clip-path="url(#clipPath73)" />
      <path
         id="path74"
         d="m 512.7396,389.037 c 0.303,-0.232 0.595,-0.471 0.881,-0.715 l 18.975,5.263 c -0.302,0.428 -0.607,0.854 -0.923,1.275 z m -3.493,2.435 c 0.322,-0.203 0.654,-0.401 0.967,-0.612 l 18.698,7.366 c -0.355,0.397 -0.718,0.785 -1.076,1.174 z m -3.743,2.039 c 0.341,-0.167 0.686,-0.331 1.023,-0.505 l 18.153,9.444 c -0.398,0.358 -0.811,0.705 -1.224,1.048 z m -36.599,-1.777 c 0.32,0.192 0.642,0.379 0.966,0.563 l 2.956,19.744 c -0.515,-0.195 -1.031,-0.406 -1.537,-0.616 z m 3.707,1.957 c 0.341,0.164 0.683,0.322 1.026,0.464 l 5.099,19.694 c -0.532,-0.129 -1.071,-0.264 -1.593,-0.411 z m 3.915,1.564 c 0.354,0.118 0.716,0.233 1.075,0.342 l 7.243,19.362 c -0.552,-0.066 -1.097,-0.151 -1.646,-0.231 z m -19.629,-14.824 c 0.214,0.303 0.421,0.611 0.631,0.907 l -4.731,17.086 c -0.36,-0.401 -0.707,-0.809 -1.053,-1.22 z m 5.371,6.274 c 0.268,0.258 0.54,0.502 0.814,0.75 l -1.148,18.935 c -0.452,-0.306 -0.895,-0.634 -1.335,-0.956 z m -2.859,-2.996 c 0.24,0.276 0.476,0.556 0.728,0.833 l -3.025,18.109 c -0.402,-0.353 -0.812,-0.708 -1.207,-1.077 z m 6.031,5.694 c 0.293,0.223 0.599,0.432 0.898,0.644 l 0.854,19.473 c -0.481,-0.254 -0.972,-0.507 -1.445,-0.774 z m 32.034,6.904 c 0.366,-0.086 0.732,-0.186 1.095,-0.277 l 16.155,13.31 c -0.48,0.253 -0.976,0.492 -1.462,0.733 z m 4.089,-1.177 c 0.361,-0.128 0.711,-0.262 1.067,-0.396 l 17.29,11.439 c -0.445,0.307 -0.892,0.614 -1.344,0.909 z m -8.285,1.892 c 0.369,-0.042 0.746,-0.095 1.124,-0.147 l 14.738,14.991 c -0.504,0.201 -1.015,0.393 -1.532,0.575 z m -4.248,0.253 c 0.377,0 0.761,-0.003 1.138,-0.018 l 13.11,16.471 c -0.54,0.135 -1.07,0.269 -1.609,0.385 z m -8.425,-0.886 c 0.364,0.082 0.738,0.147 1.105,0.215 l 9.325,18.685 c -0.559,0.005 -1.102,0.011 -1.657,-0.006 z m 4.181,0.668 c 0.376,0.045 0.754,0.085 1.133,0.112 l 11.301,17.724 c -0.553,0.075 -1.103,0.12 -1.653,0.173 z m -31.074,-54.786 c -0.146,0.316 -0.299,0.629 -0.439,0.953 l -10.29,2.665 c 0.164,-0.428 0.34,-0.852 0.518,-1.281 z m 1.812,-3.455 c -0.178,0.304 -0.353,0.6 -0.526,0.907 l -9.95,1.49 c 0.196,-0.406 0.412,-0.802 0.622,-1.2 z m -13.754,10.671 10.473,-3.591 c -0.113,0.332 -0.225,0.665 -0.332,0.999 l -10.543,3.945 c 0.123,-0.454 0.266,-0.9 0.402,-1.353 m 21.061,-19.647 c -0.256,0.226 -0.504,0.471 -0.753,0.703 l -8.595,-1.438 c 0.295,-0.313 0.593,-0.62 0.898,-0.923 z m -2.727,2.732 c -0.23,0.258 -0.455,0.519 -0.678,0.78 l -9.085,-0.553 c 0.265,-0.345 0.535,-0.686 0.81,-1.022 z m -2.445,3.005 c -0.201,0.279 -0.408,0.558 -0.601,0.843 l -9.551,0.421 c 0.24,-0.377 0.485,-0.748 0.73,-1.115 z m 8.151,-8.185 c -0.281,0.202 -0.545,0.413 -0.815,0.625 l -8.086,-2.24 c 0.315,-0.28 0.646,-0.551 0.968,-0.824 z m -11.041,49.537 c 0.172,0.322 0.345,0.641 0.532,0.955 l -6.252,15.86 c -0.298,-0.432 -0.607,-0.859 -0.897,-1.304 z m 14.25,-51.669 c -0.292,0.173 -0.576,0.357 -0.867,0.54 l -7.573,-2.98 c 0.336,-0.247 0.69,-0.48 1.034,-0.722 z m -15.999,47.977 c 0.142,0.339 0.287,0.664 0.429,0.998 l -7.534,14.48 c -0.251,-0.46 -0.493,-0.915 -0.733,-1.387 z m -2.272,-7.748 c 0.062,0.348 0.141,0.699 0.21,1.048 l -9.43,11.448 c -0.142,-0.492 -0.26,-0.99 -0.387,-1.484 z m 0.932,3.924 c 0.098,0.343 0.214,0.681 0.321,1.025 l -8.6,13.001 c -0.194,-0.478 -0.373,-0.968 -0.556,-1.457 z m -1.458,-7.896 c 0.033,0.351 0.071,0.706 0.11,1.058 l -10.032,9.866 c -0.087,-0.494 -0.162,-0.986 -0.235,-1.481 z m 0.216,-7.953 c -0.046,0.35 -0.083,0.698 -0.12,1.053 l -10.631,6.774 c 0.029,-0.483 0.058,-0.969 0.093,-1.448 z m 0.716,-3.889 c -0.087,0.343 -0.163,0.682 -0.234,1.03 l -10.659,5.323 c 0.075,-0.473 0.167,-0.946 0.254,-1.414 z m -1.026,7.854 c -0.016,0.349 -0.008,0.704 -0.012,1.051 l -10.426,8.309 c -0.027,-0.493 -0.052,-0.984 -0.067,-1.473 z"
         style="fill:#231f20;fill-opacity:1;fill-rule:nonzero;stroke:none"
         transform="matrix(2.6625278,0,0,-2.6625278,-1097.275,1198.3508)"
         clip-path="url(#clipPath75)" />
      <path
         id="path76"
         d="m 460.2314,409.5507 -2.184,24.493 c 0.702,0.394 1.412,0.76 2.131,1.124 l 1.501,-24.65 c -0.487,-0.315 -0.97,-0.631 -1.448,-0.967 m -3.794,-2.872 -3.997,23.914 c -0.662,-0.447 -1.307,-0.921 -1.95,-1.395 l 4.637,-23.659 c 0.44,0.384 0.869,0.771 1.31,1.14 m -18.895,-49.299 -16.405,8.182 c 0.051,-0.679 0.126,-1.36 0.192,-2.039 l 16.439,-7.633 c -0.082,0.493 -0.155,0.99 -0.226,1.49 m 29.838,56.373 1.1,25.049 c -0.765,-0.282 -1.515,-0.579 -2.27,-0.88 l -0.395,-24.977 c 0.52,0.272 1.035,0.553 1.565,0.808 m 12.442,4.299 6.413,24.762 c -0.812,-0.078 -1.619,-0.162 -2.424,-0.276 l -5.709,-24.895 c 0.57,0.138 1.14,0.28 1.72,0.409 m -6.362,-1.79 3.758,25.109 c -0.791,-0.176 -1.583,-0.369 -2.371,-0.579 l -3.045,-25.125 c 0.547,0.214 1.106,0.401 1.658,0.595 m 49.995,-7.747 20.579,13.614 c -0.554,0.556 -1.132,1.101 -1.714,1.638 l -20.278,-14.246 c 0.474,-0.336 0.944,-0.666 1.413,-1.006 m -82.699,-23.562 c 0.207,0.514 0.419,1.018 0.637,1.525 l -12.077,18.25 c -0.349,-0.672 -0.679,-1.356 -1.014,-2.036 z m -1.91,-5.818 c 0.14,0.521 0.287,1.05 0.447,1.569 l -13.462,16.334 c -0.265,-0.689 -0.529,-1.384 -0.779,-2.086 z m 4.521,11.463 c 0.258,0.496 0.531,0.98 0.809,1.465 l -10.398,19.988 c -0.439,-0.63 -0.872,-1.265 -1.29,-1.911 z m 74.662,21.463 19.332,15.931 c -0.631,0.485 -1.259,0.977 -1.9,1.441 l -18.957,-16.528 c 0.514,-0.272 1.018,-0.559 1.525,-0.844 m -71.385,-16.09 c 0.328,0.467 0.651,0.932 0.986,1.385 l -8.484,21.555 c -0.517,-0.583 -1.014,-1.186 -1.522,-1.788 z m -9.555,-34.414 c -0.032,0.505 -0.049,1.022 -0.065,1.534 l -16.056,10.23 c -0.02,-0.7 -0.02,-1.399 -0.024,-2.104 z m -0.061,5.805 c 0.022,0.525 0.05,1.047 0.087,1.574 l -15.433,12.283 c -0.103,-0.709 -0.194,-1.416 -0.274,-2.123 z m 0.577,5.883 c 0.081,0.53 0.159,1.06 0.257,1.589 l -14.567,14.325 c -0.186,-0.699 -0.382,-1.403 -0.539,-2.109 z m 68.396,43.903 15.902,19.984 c -0.74,0.323 -1.479,0.645 -2.234,0.945 l -15.385,-20.485 c 0.57,-0.146 1.142,-0.286 1.717,-0.444 m -6.444,1.416 13.816,21.671 c -0.787,0.234 -1.572,0.429 -2.361,0.64 l -13.198,-22.052 c 0.583,-0.073 1.159,-0.17 1.743,-0.259 m -48.979,-17.571 c 0.379,0.426 0.767,0.844 1.162,1.257 l -6.333,22.866 c -0.594,-0.523 -1.185,-1.048 -1.756,-1.587 z m 61.591,13.954 17.788,18.099 c -0.684,0.407 -1.399,0.79 -2.108,1.181 l -17.302,-18.621 c 0.549,-0.207 1.089,-0.429 1.622,-0.659 m -19.182,4.259 11.487,23.029 c -0.803,0.132 -1.609,0.259 -2.412,0.362 l -10.85,-23.362 c 0.588,-0.004 1.181,-0.007 1.775,-0.029 m -6.618,-0.179 9.015,24.097 c -0.824,0.026 -1.637,0.024 -2.457,0.02 l -8.316,-24.288 c 0.579,0.068 1.168,0.119 1.758,0.171 m -44.011,-77.413 -16.178,2.425 c 0.237,-0.586 0.459,-1.175 0.712,-1.754 l 16.112,-1.947 c -0.218,0.422 -0.437,0.846 -0.646,1.276 m 16.063,-19.643 -13.046,-5.129 c 0.423,-0.384 0.865,-0.75 1.294,-1.114 l 12.804,5.46 c -0.353,0.258 -0.704,0.52 -1.052,0.783 m -19.784,29.894 -16.521,6.18 c 0.117,-0.654 0.242,-1.306 0.377,-1.955 l 16.529,-5.661 c -0.138,0.474 -0.265,0.954 -0.385,1.436 m 1.618,-5.275 -16.436,4.258 c 0.184,-0.618 0.355,-1.241 0.549,-1.856 l 16.41,-3.763 c -0.174,0.452 -0.348,0.906 -0.523,1.361 m 7.547,-13.946 -15.231,-0.927 c 0.33,-0.498 0.647,-1.013 0.982,-1.511 l 15.102,1.35 c -0.286,0.363 -0.576,0.722 -0.853,1.088 m 6.812,-7.503 -13.858,-3.838 c 0.399,-0.418 0.795,-0.837 1.2,-1.243 l 13.652,4.197 c -0.339,0.289 -0.67,0.584 -0.994,0.884 m -3.558,3.56 -14.582,-2.435 c 0.362,-0.458 0.716,-0.927 1.089,-1.381 l 14.422,2.829 c -0.307,0.328 -0.622,0.653 -0.929,0.987 m -6.17,8.256 -15.765,0.691 c 0.279,-0.548 0.556,-1.093 0.86,-1.63 l 15.663,-0.247 c -0.253,0.394 -0.509,0.784 -0.758,1.186 m 26.14,-22.102 -10.208,-8.41 c 0.487,-0.239 0.969,-0.487 1.466,-0.716 l 9.948,8.676 c -0.406,0.15 -0.81,0.29 -1.206,0.45 m -8.571,4.346 -12.172,-6.33 c 0.451,-0.334 0.914,-0.647 1.375,-0.972 l 11.889,6.621 c -0.365,0.22 -0.726,0.454 -1.092,0.681 m 4.212,-2.371 -11.212,-7.419 c 0.469,-0.284 0.927,-0.574 1.409,-0.847 l 10.958,7.692 c -0.386,0.192 -0.772,0.383 -1.155,0.574 m 8.856,-3.532 -9.188,-9.345 c 0.503,-0.2 1.018,-0.376 1.521,-0.56 l 8.88,9.549 c -0.406,0.113 -0.805,0.229 -1.213,0.356"
         style="fill:#e51636;fill-opacity:1;fill-rule:nonzero;stroke:none"
         transform="matrix(2.6625278,0,0,-2.6625278,-1097.275,1198.3508)"
         clip-path="url(#clipPath77)" />
    </g>
  </g>
</svg>
